<svg width="27" height="26" viewBox="0 0 27 26" fill="none" xmlns="http://www.w3.org/2000/svg">
<path d="M21.6 20.8C20.1015 20.8 18.9 21.957 18.9 23.4C18.9 24.0896 19.1845 24.7509 19.6908 25.2385C20.1972 25.7261 20.8839 26 21.6 26C22.3161 26 23.0028 25.7261 23.5092 25.2385C24.0155 24.7509 24.3 24.0896 24.3 23.4C24.3 22.7104 24.0155 22.0491 23.5092 21.5615C23.0028 21.0739 22.3161 20.8 21.6 20.8ZM0 0V2.6H2.7L7.56 12.467L5.724 15.652C5.5215 16.016 5.4 16.445 5.4 16.9C5.4 17.5896 5.68446 18.2509 6.19081 18.7385C6.69716 19.2261 7.38392 19.5 8.1 19.5H24.3V16.9H8.667C8.57749 16.9 8.49164 16.8658 8.42835 16.8048C8.36506 16.7439 8.3295 16.6612 8.3295 16.575C8.3295 16.51 8.343 16.458 8.37 16.419L9.585 14.3H19.6425C20.655 14.3 21.546 13.754 22.005 12.961L26.838 4.55C26.9325 4.342 27 4.121 27 3.9C27 3.55522 26.8578 3.22456 26.6046 2.98076C26.3514 2.73696 26.008 2.6 25.65 2.6H5.6835L4.4145 0M8.1 20.8C6.6015 20.8 5.4 21.957 5.4 23.4C5.4 24.0896 5.68446 24.7509 6.19081 25.2385C6.69716 25.7261 7.38392 26 8.1 26C8.81608 26 9.50284 25.7261 10.0092 25.2385C10.5155 24.7509 10.8 24.0896 10.8 23.4C10.8 22.7104 10.5155 22.0491 10.0092 21.5615C9.50284 21.0739 8.81608 20.8 8.1 20.8Z" fill="black"/>
</svg>
